<mxfile host="Electron" modified="2024-07-15T05:13:15.899Z" agent="Mozilla/5.0 (Windows NT 10.0; Win64; x64) AppleWebKit/537.36 (KHTML, like Gecko) draw.io/24.5.3 Chrome/124.0.6367.207 Electron/30.0.6 Safari/537.36" etag="gWIgB2el5xfj9hx0N-Ah" version="24.5.3" type="device" pages="2">
  <diagram name="Página-1" id="N2-zhjFlQqDtDkERAfEA">
    <mxGraphModel dx="905" dy="836" grid="1" gridSize="10" guides="1" tooltips="1" connect="1" arrows="1" fold="1" page="1" pageScale="1" pageWidth="1169" pageHeight="827" math="0" shadow="0">
      <root>
        <mxCell id="0" />
        <mxCell id="1" parent="0" />
        <mxCell id="ubUgCDe-K2vhHDp4Me_q-1" value="Aeropuerto" style="rounded=0;whiteSpace=wrap;html=1;fontSize=16;fontStyle=1;fillColor=#dae8fc;strokeColor=#6c8ebf;" parent="1" vertex="1">
          <mxGeometry x="1200" y="1002" width="640" height="40" as="geometry" />
        </mxCell>
        <mxCell id="ubUgCDe-K2vhHDp4Me_q-2" value="3. Carga deDatos" style="rounded=0;whiteSpace=wrap;html=1;verticalAlign=top;fontStyle=1;fillColor=#f8cecc;strokeColor=#b85450;" parent="1" vertex="1">
          <mxGeometry x="1460" y="1592" width="380" height="260" as="geometry" />
        </mxCell>
        <mxCell id="ubUgCDe-K2vhHDp4Me_q-3" value="&lt;div&gt;&lt;b style=&quot;text-align: left; background-color: initial;&quot;&gt;Destino de Datos:&lt;/b&gt;&lt;br&gt;&lt;ul&gt;&lt;li style=&quot;text-align: left;&quot;&gt;Tabla: G5_Aeropuerto&lt;/li&gt;&lt;/ul&gt;&lt;div&gt;&lt;br&gt;&lt;/div&gt;&lt;div style=&quot;&quot;&gt;&lt;b&gt;Campos:&lt;/b&gt;&lt;/div&gt;&lt;/div&gt;&lt;div style=&quot;&quot;&gt;&lt;ul&gt;&lt;li style=&quot;text-align: left;&quot;&gt;idAeropuerto_DWH&lt;/li&gt;&lt;li style=&quot;text-align: left;&quot;&gt;Sigla&lt;/li&gt;&lt;li style=&quot;text-align: left;&quot;&gt;IATA&lt;/li&gt;&lt;li style=&quot;text-align: left;&quot;&gt;Nombre&lt;/li&gt;&lt;li style=&quot;text-align: left;&quot;&gt;Elevacion&lt;/li&gt;&lt;li style=&quot;text-align: left;&quot;&gt;NombreMunicipio&lt;/li&gt;&lt;li style=&quot;text-align: left;&quot;&gt;NombreDepartamento&lt;/li&gt;&lt;/ul&gt;&lt;/div&gt;" style="rounded=1;whiteSpace=wrap;html=1;glass=0;shadow=0;align=center;fillColor=#fff2cc;strokeColor=#d6b656;" parent="1" vertex="1">
          <mxGeometry x="1492.5" y="1622" width="315" height="213" as="geometry" />
        </mxCell>
        <mxCell id="ubUgCDe-K2vhHDp4Me_q-4" style="edgeStyle=orthogonalEdgeStyle;rounded=0;orthogonalLoop=1;jettySize=auto;html=1;exitX=0.5;exitY=1;exitDx=0;exitDy=0;entryX=0.5;entryY=0;entryDx=0;entryDy=0;" parent="1" source="ubUgCDe-K2vhHDp4Me_q-5" target="ubUgCDe-K2vhHDp4Me_q-10" edge="1">
          <mxGeometry relative="1" as="geometry" />
        </mxCell>
        <mxCell id="ubUgCDe-K2vhHDp4Me_q-5" value="1. Extraer Información de Tablas" style="rounded=0;whiteSpace=wrap;html=1;verticalAlign=top;fontStyle=1;fillColor=#f8cecc;strokeColor=#b85450;" parent="1" vertex="1">
          <mxGeometry x="1460" y="1062" width="380" height="100" as="geometry" />
        </mxCell>
        <mxCell id="ubUgCDe-K2vhHDp4Me_q-6" style="edgeStyle=orthogonalEdgeStyle;rounded=0;orthogonalLoop=1;jettySize=auto;html=1;entryX=1;entryY=0.25;entryDx=0;entryDy=0;" parent="1" source="ubUgCDe-K2vhHDp4Me_q-7" target="ubUgCDe-K2vhHDp4Me_q-8" edge="1">
          <mxGeometry relative="1" as="geometry" />
        </mxCell>
        <mxCell id="ubUgCDe-K2vhHDp4Me_q-7" value="Extraer Datos de Aeropuertos" style="rounded=1;whiteSpace=wrap;html=1;fillColor=#e1d5e7;strokeColor=#9673a6;" parent="1" vertex="1">
          <mxGeometry x="1562.5" y="1089.5" width="170" height="52.5" as="geometry" />
        </mxCell>
        <mxCell id="ubUgCDe-K2vhHDp4Me_q-8" value="&lt;b&gt;Fuente de Datos:&lt;/b&gt;&lt;div&gt;&lt;ul&gt;&lt;li style=&quot;&quot;&gt;Tabla: Aeropuertos&lt;/li&gt;&lt;/ul&gt;&lt;div&gt;&lt;br&gt;&lt;/div&gt;&lt;div style=&quot;&quot;&gt;&lt;b&gt;Campos:&lt;/b&gt;&lt;/div&gt;&lt;/div&gt;&lt;div style=&quot;&quot;&gt;&lt;ul&gt;&lt;li style=&quot;text-align: left;&quot;&gt;sigla&lt;/li&gt;&lt;li style=&quot;text-align: left;&quot;&gt;iata&lt;/li&gt;&lt;li style=&quot;text-align: left;&quot;&gt;nombre&lt;/li&gt;&lt;li style=&quot;text-align: left;&quot;&gt;elevacion&lt;/li&gt;&lt;li style=&quot;text-align: left;&quot;&gt;municipio&lt;/li&gt;&lt;li style=&quot;text-align: left;&quot;&gt;departamento&lt;/li&gt;&lt;/ul&gt;&lt;/div&gt;" style="rounded=1;whiteSpace=wrap;html=1;glass=0;shadow=0;align=center;fillColor=#fff2cc;strokeColor=#d6b656;" parent="1" vertex="1">
          <mxGeometry x="1200" y="1063" width="220" height="209" as="geometry" />
        </mxCell>
        <mxCell id="ubUgCDe-K2vhHDp4Me_q-9" style="edgeStyle=orthogonalEdgeStyle;rounded=0;orthogonalLoop=1;jettySize=auto;html=1;exitX=0.5;exitY=1;exitDx=0;exitDy=0;entryX=0.5;entryY=0;entryDx=0;entryDy=0;" parent="1" source="ubUgCDe-K2vhHDp4Me_q-10" target="ubUgCDe-K2vhHDp4Me_q-2" edge="1">
          <mxGeometry relative="1" as="geometry">
            <mxPoint x="1650" y="1549" as="sourcePoint" />
          </mxGeometry>
        </mxCell>
        <mxCell id="ubUgCDe-K2vhHDp4Me_q-10" value="2. Transformaciones" style="rounded=0;whiteSpace=wrap;html=1;verticalAlign=top;fontStyle=1;fillColor=#f8cecc;strokeColor=#b85450;" parent="1" vertex="1">
          <mxGeometry x="1460" y="1192" width="380" height="360" as="geometry" />
        </mxCell>
        <mxCell id="ubUgCDe-K2vhHDp4Me_q-11" value="T1. Eliminar Duplicados Totales de la tabla Origen." style="rounded=0;whiteSpace=wrap;html=1;" parent="1" vertex="1">
          <mxGeometry x="1482.5" y="1222" width="335" height="50" as="geometry" />
        </mxCell>
        <mxCell id="ubUgCDe-K2vhHDp4Me_q-12" value="T2. Adecuación del Formato de la Tabla según la Expectativa de Salida." style="rounded=0;whiteSpace=wrap;html=1;" parent="1" vertex="1">
          <mxGeometry x="1482.5" y="1287" width="335" height="50" as="geometry" />
        </mxCell>
        <mxCell id="ubUgCDe-K2vhHDp4Me_q-13" value="T3. Creación de la columna idAeropuero_DWH." style="rounded=0;whiteSpace=wrap;html=1;" parent="1" vertex="1">
          <mxGeometry x="1482.5" y="1352" width="335" height="50" as="geometry" />
        </mxCell>
        <mxCell id="ubUgCDe-K2vhHDp4Me_q-17" value="Hecho Vuelo" style="rounded=0;whiteSpace=wrap;html=1;fontSize=16;fontStyle=1;fillColor=#dae8fc;strokeColor=#6c8ebf;" parent="1" vertex="1">
          <mxGeometry x="1200" y="2140" width="640" height="40" as="geometry" />
        </mxCell>
        <mxCell id="ubUgCDe-K2vhHDp4Me_q-18" value="3. Carga deDatos" style="rounded=0;whiteSpace=wrap;html=1;verticalAlign=top;fontStyle=1;fillColor=#f8cecc;strokeColor=#b85450;" parent="1" vertex="1">
          <mxGeometry x="1490" y="2590" width="350" height="350" as="geometry" />
        </mxCell>
        <mxCell id="ubUgCDe-K2vhHDp4Me_q-19" value="&lt;div&gt;&lt;b style=&quot;text-align: left; background-color: initial;&quot;&gt;Destino de Datos:&lt;/b&gt;&lt;br&gt;&lt;ul&gt;&lt;li style=&quot;text-align: left;&quot;&gt;Tabla: G5_HechoVuelo&lt;/li&gt;&lt;/ul&gt;&lt;div style=&quot;&quot;&gt;&lt;b&gt;Campos:&lt;/b&gt;&lt;/div&gt;&lt;/div&gt;&lt;div style=&quot;&quot;&gt;&lt;ul&gt;&lt;li style=&quot;text-align: left;&quot;&gt;idFecha&lt;/li&gt;&lt;li style=&quot;text-align: left;&quot;&gt;idAeropuertoOrigen_DWH&lt;/li&gt;&lt;li style=&quot;text-align: left;&quot;&gt;idAeropuertoDestino_DWH&lt;/li&gt;&lt;li style=&quot;text-align: left;&quot;&gt;idMiniMomentoDelHechoOrigen_DWH&lt;/li&gt;&lt;li style=&quot;text-align: left;&quot;&gt;idMunicipioOrigen_DWH&lt;/li&gt;&lt;li style=&quot;text-align: left;&quot;&gt;idMunicipioDestino_DWH&lt;/li&gt;&lt;li style=&quot;text-align: left;&quot;&gt;idTrafico_DWH&lt;/li&gt;&lt;li style=&quot;text-align: left;&quot;&gt;idTipoVuelo_DWH&lt;/li&gt;&lt;li style=&quot;text-align: left;&quot;&gt;Vuelos&lt;/li&gt;&lt;li style=&quot;text-align: left;&quot;&gt;Sillas&lt;/li&gt;&lt;li style=&quot;text-align: left;&quot;&gt;CargaOfrecida&lt;/li&gt;&lt;li style=&quot;text-align: left;&quot;&gt;Pasajeros&lt;/li&gt;&lt;li style=&quot;text-align: left;&quot;&gt;CargaAbordo&lt;/li&gt;&lt;/ul&gt;&lt;/div&gt;" style="rounded=1;whiteSpace=wrap;html=1;glass=0;shadow=0;align=center;fillColor=#fff2cc;strokeColor=#d6b656;" parent="1" vertex="1">
          <mxGeometry x="1513.5" y="2620" width="310" height="304" as="geometry" />
        </mxCell>
        <mxCell id="ubUgCDe-K2vhHDp4Me_q-20" style="edgeStyle=orthogonalEdgeStyle;rounded=0;orthogonalLoop=1;jettySize=auto;html=1;exitX=0.5;exitY=1;exitDx=0;exitDy=0;entryX=0.5;entryY=0;entryDx=0;entryDy=0;" parent="1" source="ubUgCDe-K2vhHDp4Me_q-21" target="ubUgCDe-K2vhHDp4Me_q-26" edge="1">
          <mxGeometry relative="1" as="geometry" />
        </mxCell>
        <mxCell id="ubUgCDe-K2vhHDp4Me_q-21" value="1. Extraer Información de Tablas" style="rounded=0;whiteSpace=wrap;html=1;verticalAlign=top;fontStyle=1;fillColor=#f8cecc;strokeColor=#b85450;" parent="1" vertex="1">
          <mxGeometry x="1490" y="2200" width="350" height="100" as="geometry" />
        </mxCell>
        <mxCell id="ubUgCDe-K2vhHDp4Me_q-23" value="Extraer Datos de Tablas" style="rounded=1;whiteSpace=wrap;html=1;fillColor=#e1d5e7;strokeColor=#9673a6;" parent="1" vertex="1">
          <mxGeometry x="1562.5" y="2227.5" width="170" height="52.5" as="geometry" />
        </mxCell>
        <mxCell id="ubUgCDe-K2vhHDp4Me_q-24" value="&lt;b&gt;Fuente de Datos:&lt;/b&gt;&lt;div&gt;&lt;ul&gt;&lt;li style=&quot;text-align: left;&quot;&gt;Tabla: Vuelos&lt;/li&gt;&lt;li style=&quot;text-align: left;&quot;&gt;Tabla: G5_Aeropuerto&lt;/li&gt;&lt;li style=&quot;text-align: left;&quot;&gt;Tabla: G5_miniDimensionAeropuerto&lt;/li&gt;&lt;li style=&quot;text-align: left;&quot;&gt;Tabla: G5_Fecha&lt;/li&gt;&lt;li style=&quot;text-align: left;&quot;&gt;Tabla: G5_GeografiaconDemografia&lt;/li&gt;&lt;li style=&quot;text-align: left;&quot;&gt;Tabla: G5_Trafico&lt;/li&gt;&lt;li style=&quot;text-align: left;&quot;&gt;Tabla: G5_TipoVuelo&lt;/li&gt;&lt;/ul&gt;&lt;div&gt;&lt;br&gt;&lt;/div&gt;&lt;div style=&quot;&quot;&gt;&lt;b&gt;Campos:&lt;/b&gt;&lt;/div&gt;&lt;/div&gt;&lt;div style=&quot;&quot;&gt;&lt;ul&gt;&lt;li style=&quot;border-color: var(--border-color); text-align: left;&quot;&gt;ano&lt;/li&gt;&lt;li style=&quot;border-color: var(--border-color); text-align: left;&quot;&gt;mes&lt;/li&gt;&lt;li style=&quot;border-color: var(--border-color); text-align: left;&quot;&gt;vuelos&lt;/li&gt;&lt;li style=&quot;border-color: var(--border-color); text-align: left;&quot;&gt;sillas&lt;/li&gt;&lt;li style=&quot;text-align: left;&quot;&gt;carga_ofrecida&lt;/li&gt;&lt;li style=&quot;text-align: left;&quot;&gt;pasajeros&lt;/li&gt;&lt;li style=&quot;text-align: left;&quot;&gt;carga_bordo&lt;/li&gt;&lt;li style=&quot;text-align: left;&quot;&gt;idAeropuerto_DWH&lt;/li&gt;&lt;li style=&quot;text-align: left;&quot;&gt;idMini_DWH&lt;/li&gt;&lt;li style=&quot;text-align: left;&quot;&gt;idFecha&lt;/li&gt;&lt;li style=&quot;text-align: left;&quot;&gt;idMunicipio_DWH&lt;/li&gt;&lt;li style=&quot;text-align: left;&quot;&gt;idTrafico_DWH&lt;/li&gt;&lt;li style=&quot;text-align: left;&quot;&gt;idTipoVuelo_DWH&lt;/li&gt;&lt;/ul&gt;&lt;/div&gt;" style="rounded=1;whiteSpace=wrap;html=1;glass=0;shadow=0;align=center;fillColor=#fff2cc;strokeColor=#d6b656;" parent="1" vertex="1">
          <mxGeometry x="1200" y="2200" width="250" height="390" as="geometry" />
        </mxCell>
        <mxCell id="ubUgCDe-K2vhHDp4Me_q-25" style="edgeStyle=orthogonalEdgeStyle;rounded=0;orthogonalLoop=1;jettySize=auto;html=1;exitX=0.492;exitY=0.994;exitDx=0;exitDy=0;entryX=0.5;entryY=0;entryDx=0;entryDy=0;exitPerimeter=0;" parent="1" source="ubUgCDe-K2vhHDp4Me_q-26" target="ubUgCDe-K2vhHDp4Me_q-18" edge="1">
          <mxGeometry relative="1" as="geometry">
            <mxPoint x="1647.5" y="2687" as="sourcePoint" />
          </mxGeometry>
        </mxCell>
        <mxCell id="ubUgCDe-K2vhHDp4Me_q-26" value="2. Transformaciones" style="rounded=0;whiteSpace=wrap;html=1;verticalAlign=top;fontStyle=1;fillColor=#f8cecc;strokeColor=#b85450;" parent="1" vertex="1">
          <mxGeometry x="1490" y="2325" width="350" height="235" as="geometry" />
        </mxCell>
        <mxCell id="ubUgCDe-K2vhHDp4Me_q-27" value="T1. Eliminar Duplicados Totales la tabla de Vuelos" style="rounded=0;whiteSpace=wrap;html=1;" parent="1" vertex="1">
          <mxGeometry x="1520" y="2355" width="297.5" height="50" as="geometry" />
        </mxCell>
        <mxCell id="ubUgCDe-K2vhHDp4Me_q-30" style="edgeStyle=orthogonalEdgeStyle;rounded=0;orthogonalLoop=1;jettySize=auto;html=1;" parent="1" source="ubUgCDe-K2vhHDp4Me_q-23" edge="1">
          <mxGeometry relative="1" as="geometry">
            <mxPoint x="1452.5" y="2254" as="targetPoint" />
          </mxGeometry>
        </mxCell>
        <mxCell id="932UYrGROrPiQN3rEVwB-2" value="30147T2. Preparación para Conexión de Tablas de dimensiones." style="rounded=0;whiteSpace=wrap;html=1;" parent="1" vertex="1">
          <mxGeometry x="1517.5" y="2420" width="300" height="50" as="geometry" />
        </mxCell>
        <mxCell id="932UYrGROrPiQN3rEVwB-3" value="T3. Conexión tablas dimensiones con Tabla Hechos." style="rounded=0;whiteSpace=wrap;html=1;" parent="1" vertex="1">
          <mxGeometry x="1520" y="2485" width="297.5" height="50" as="geometry" />
        </mxCell>
        <mxCell id="kuKqwatzuB6j1uQe38Sz-1" value="T4. Rellenar valores vacíos de la columna IATA con valores por defecto." style="rounded=0;whiteSpace=wrap;html=1;" parent="1" vertex="1">
          <mxGeometry x="1482.5" y="1417" width="335" height="50" as="geometry" />
        </mxCell>
        <mxCell id="kuKqwatzuB6j1uQe38Sz-2" value="T5. Creación del Aeropuerto con idAeropuerto_DWH cero, para ser usado con Aeropuertos Internacionales sin datos." style="rounded=0;whiteSpace=wrap;html=1;" parent="1" vertex="1">
          <mxGeometry x="1482.5" y="1482" width="335" height="50" as="geometry" />
        </mxCell>
        <mxCell id="g_pBsq-3c6XKnpf-Vrf6-1" value="Mini Dimension Aeropuerto" style="rounded=0;whiteSpace=wrap;html=1;fontSize=16;fontStyle=1;fillColor=#dae8fc;strokeColor=#6c8ebf;" parent="1" vertex="1">
          <mxGeometry x="1860" y="1002" width="640" height="40" as="geometry" />
        </mxCell>
        <mxCell id="g_pBsq-3c6XKnpf-Vrf6-2" value="3. Carga de Datos" style="rounded=0;whiteSpace=wrap;html=1;verticalAlign=top;fontStyle=1;fillColor=#f8cecc;strokeColor=#b85450;" parent="1" vertex="1">
          <mxGeometry x="2147.5" y="1799" width="350" height="260" as="geometry" />
        </mxCell>
        <mxCell id="g_pBsq-3c6XKnpf-Vrf6-3" value="&lt;div&gt;&lt;b style=&quot;text-align: left; background-color: initial;&quot;&gt;Destino de Datos:&lt;/b&gt;&lt;br&gt;&lt;ul&gt;&lt;li style=&quot;text-align: left;&quot;&gt;Tabla: G5_MiniDimensionAeropuerto&lt;/li&gt;&lt;/ul&gt;&lt;div style=&quot;&quot;&gt;&lt;b&gt;Campos:&lt;/b&gt;&lt;/div&gt;&lt;/div&gt;&lt;div style=&quot;&quot;&gt;&lt;ul&gt;&lt;li style=&quot;text-align: left;&quot;&gt;idMini_DWH&lt;/li&gt;&lt;li style=&quot;text-align: left;&quot;&gt;rangoLongitudPista&lt;/li&gt;&lt;li style=&quot;text-align: left;&quot;&gt;rangoAnchoPista&lt;/li&gt;&lt;li style=&quot;text-align: left;&quot;&gt;rangoNumeroVuelosOrigen&lt;/li&gt;&lt;li style=&quot;text-align: left;&quot;&gt;clase&lt;/li&gt;&lt;li style=&quot;text-align: left;&quot;&gt;tipo&lt;/li&gt;&lt;/ul&gt;&lt;/div&gt;" style="rounded=1;whiteSpace=wrap;html=1;glass=0;shadow=0;align=center;fillColor=#fff2cc;strokeColor=#d6b656;" parent="1" vertex="1">
          <mxGeometry x="2171" y="1829" width="310" height="210" as="geometry" />
        </mxCell>
        <mxCell id="g_pBsq-3c6XKnpf-Vrf6-4" style="edgeStyle=orthogonalEdgeStyle;rounded=0;orthogonalLoop=1;jettySize=auto;html=1;exitX=0.5;exitY=1;exitDx=0;exitDy=0;entryX=0.5;entryY=0;entryDx=0;entryDy=0;" parent="1" source="g_pBsq-3c6XKnpf-Vrf6-5" target="g_pBsq-3c6XKnpf-Vrf6-9" edge="1">
          <mxGeometry relative="1" as="geometry" />
        </mxCell>
        <mxCell id="g_pBsq-3c6XKnpf-Vrf6-5" value="1. Extraer Información de Tablas" style="rounded=0;whiteSpace=wrap;html=1;verticalAlign=top;fontStyle=1;fillColor=#f8cecc;strokeColor=#b85450;" parent="1" vertex="1">
          <mxGeometry x="2150" y="1062" width="350" height="100" as="geometry" />
        </mxCell>
        <mxCell id="g_pBsq-3c6XKnpf-Vrf6-6" value="Extraer Datos de las Tablas" style="rounded=1;whiteSpace=wrap;html=1;fillColor=#e1d5e7;strokeColor=#9673a6;" parent="1" vertex="1">
          <mxGeometry x="2222.5" y="1091.5" width="170" height="52.5" as="geometry" />
        </mxCell>
        <mxCell id="g_pBsq-3c6XKnpf-Vrf6-7" value="&lt;b&gt;Fuente de Datos:&lt;/b&gt;&lt;div&gt;&lt;ul&gt;&lt;li style=&quot;text-align: left;&quot;&gt;&lt;span style=&quot;background-color: initial;&quot;&gt;Tabla:&amp;nbsp;&lt;/span&gt;Aeropuertos&lt;/li&gt;&lt;li style=&quot;text-align: left;&quot;&gt;Tabla G5_Aeropuerto&lt;/li&gt;&lt;/ul&gt;&lt;div&gt;&lt;br&gt;&lt;/div&gt;&lt;div style=&quot;&quot;&gt;&lt;b&gt;Campos:&lt;/b&gt;&lt;/div&gt;&lt;/div&gt;&lt;div style=&quot;&quot;&gt;&lt;ul&gt;&lt;li style=&quot;border-color: var(--border-color); text-align: left;&quot;&gt;sigla&lt;/li&gt;&lt;li style=&quot;border-color: var(--border-color); text-align: left;&quot;&gt;longitud_pista&lt;br&gt;&lt;/li&gt;&lt;li style=&quot;border-color: var(--border-color); text-align: left;&quot;&gt;ancho_pista&lt;br&gt;&lt;/li&gt;&lt;li style=&quot;border-color: var(--border-color); text-align: left;&quot;&gt;numero_vuelos_origen&lt;br&gt;&lt;/li&gt;&lt;li style=&quot;border-color: var(--border-color); text-align: left;&quot;&gt;clase&lt;br&gt;&lt;/li&gt;&lt;li style=&quot;border-color: var(--border-color); text-align: left;&quot;&gt;tipo&lt;br&gt;&lt;/li&gt;&lt;li style=&quot;border-color: var(--border-color); text-align: left;&quot;&gt;idAeropuerto_DWH&lt;/li&gt;&lt;/ul&gt;&lt;/div&gt;" style="rounded=1;whiteSpace=wrap;html=1;glass=0;shadow=0;align=center;fillColor=#fff2cc;strokeColor=#d6b656;" parent="1" vertex="1">
          <mxGeometry x="1860" y="1062" width="250" height="250" as="geometry" />
        </mxCell>
        <mxCell id="g_pBsq-3c6XKnpf-Vrf6-8" style="edgeStyle=orthogonalEdgeStyle;rounded=0;orthogonalLoop=1;jettySize=auto;html=1;exitX=0.492;exitY=0.994;exitDx=0;exitDy=0;entryX=0.5;entryY=0;entryDx=0;entryDy=0;exitPerimeter=0;" parent="1" target="g_pBsq-3c6XKnpf-Vrf6-2" edge="1">
          <mxGeometry relative="1" as="geometry">
            <mxPoint x="2322.2" y="1560.23" as="sourcePoint" />
          </mxGeometry>
        </mxCell>
        <mxCell id="g_pBsq-3c6XKnpf-Vrf6-9" value="2. Transformaciones" style="rounded=0;whiteSpace=wrap;html=1;verticalAlign=top;fontStyle=1;fillColor=#f8cecc;strokeColor=#b85450;" parent="1" vertex="1">
          <mxGeometry x="2150" y="1187" width="350" height="575" as="geometry" />
        </mxCell>
        <mxCell id="g_pBsq-3c6XKnpf-Vrf6-10" value="T1. Eliminar Duplicados Totales de la tabla Origen." style="rounded=0;whiteSpace=wrap;html=1;" parent="1" vertex="1">
          <mxGeometry x="2180" y="1217" width="297.5" height="50" as="geometry" />
        </mxCell>
        <mxCell id="g_pBsq-3c6XKnpf-Vrf6-11" style="edgeStyle=orthogonalEdgeStyle;rounded=0;orthogonalLoop=1;jettySize=auto;html=1;entryX=1.004;entryY=0.226;entryDx=0;entryDy=0;entryPerimeter=0;" parent="1" source="g_pBsq-3c6XKnpf-Vrf6-6" target="g_pBsq-3c6XKnpf-Vrf6-7" edge="1">
          <mxGeometry relative="1" as="geometry" />
        </mxCell>
        <mxCell id="g_pBsq-3c6XKnpf-Vrf6-12" value="T7. Rellenar valores vacíos de la columna Clase con valores por defecto &#39;Sin clase&#39;." style="rounded=0;whiteSpace=wrap;html=1;" parent="1" vertex="1">
          <mxGeometry x="2176.25" y="1632" width="297.5" height="50" as="geometry" />
        </mxCell>
        <mxCell id="g_pBsq-3c6XKnpf-Vrf6-13" value="T8. Creación de la columna&amp;nbsp;&lt;span style=&quot;text-align: left; background-color: initial;&quot;&gt;idMini_DWH&lt;/span&gt;." style="rounded=0;whiteSpace=wrap;html=1;" parent="1" vertex="1">
          <mxGeometry x="2176.5" y="1692" width="300" height="50" as="geometry" />
        </mxCell>
        <mxCell id="g_pBsq-3c6XKnpf-Vrf6-14" value="T6. Rellenar valores vacíos de la columna Tipo con valores por defecto &#39;Sin tipo&#39;." style="rounded=0;whiteSpace=wrap;html=1;" parent="1" vertex="1">
          <mxGeometry x="2176.25" y="1572" width="297.5" height="50" as="geometry" />
        </mxCell>
        <mxCell id="g_pBsq-3c6XKnpf-Vrf6-15" value="T2. Tomar la información de la columna numero_vuelos_origen multiplicando por -1 cuando vengan valores negativos." style="rounded=0;whiteSpace=wrap;html=1;" parent="1" vertex="1">
          <mxGeometry x="2178.75" y="1274" width="297.5" height="66" as="geometry" />
        </mxCell>
        <mxCell id="g_pBsq-3c6XKnpf-Vrf6-16" value="Hecho Historia Cambios" style="rounded=0;whiteSpace=wrap;html=1;fontSize=16;fontStyle=1;fillColor=#dae8fc;strokeColor=#6c8ebf;" parent="1" vertex="1">
          <mxGeometry x="2520" y="1002" width="640" height="40" as="geometry" />
        </mxCell>
        <mxCell id="g_pBsq-3c6XKnpf-Vrf6-17" value="3. Carga de Datos" style="rounded=0;whiteSpace=wrap;html=1;verticalAlign=top;fontStyle=1;fillColor=#f8cecc;strokeColor=#b85450;" parent="1" vertex="1">
          <mxGeometry x="2810" y="1442" width="350" height="260" as="geometry" />
        </mxCell>
        <mxCell id="g_pBsq-3c6XKnpf-Vrf6-18" value="&lt;div&gt;&lt;b style=&quot;text-align: left; background-color: initial;&quot;&gt;Destino de Datos:&lt;/b&gt;&lt;br&gt;&lt;ul&gt;&lt;li style=&quot;text-align: left;&quot;&gt;Tabla: G5_HechoHistoriaCambios&lt;/li&gt;&lt;/ul&gt;&lt;div style=&quot;&quot;&gt;&lt;b&gt;Campos:&lt;/b&gt;&lt;/div&gt;&lt;/div&gt;&lt;div style=&quot;&quot;&gt;&lt;ul&gt;&lt;li style=&quot;text-align: left;&quot;&gt;cambio&lt;/li&gt;&lt;li style=&quot;text-align: left;&quot;&gt;fechaInicio&lt;/li&gt;&lt;li style=&quot;text-align: left;&quot;&gt;fechaFin&lt;/li&gt;&lt;li style=&quot;border-color: var(--border-color); text-align: left;&quot;&gt;idMini_DWH&lt;/li&gt;&lt;li style=&quot;text-align: left;&quot;&gt;&lt;span style=&quot;background-color: initial;&quot;&gt;idAeropuerto_DWH&lt;/span&gt;&lt;br&gt;&lt;/li&gt;&lt;/ul&gt;&lt;/div&gt;" style="rounded=1;whiteSpace=wrap;html=1;glass=0;shadow=0;align=center;fillColor=#fff2cc;strokeColor=#d6b656;" parent="1" vertex="1">
          <mxGeometry x="2831.5" y="1472" width="310" height="210" as="geometry" />
        </mxCell>
        <mxCell id="g_pBsq-3c6XKnpf-Vrf6-19" style="edgeStyle=orthogonalEdgeStyle;rounded=0;orthogonalLoop=1;jettySize=auto;html=1;exitX=0.5;exitY=1;exitDx=0;exitDy=0;entryX=0.5;entryY=0;entryDx=0;entryDy=0;" parent="1" source="g_pBsq-3c6XKnpf-Vrf6-20" target="g_pBsq-3c6XKnpf-Vrf6-24" edge="1">
          <mxGeometry relative="1" as="geometry" />
        </mxCell>
        <mxCell id="g_pBsq-3c6XKnpf-Vrf6-20" value="1. Extraer Información de Tablas" style="rounded=0;whiteSpace=wrap;html=1;verticalAlign=top;fontStyle=1;fillColor=#f8cecc;strokeColor=#b85450;" parent="1" vertex="1">
          <mxGeometry x="2810" y="1062" width="350" height="100" as="geometry" />
        </mxCell>
        <mxCell id="g_pBsq-3c6XKnpf-Vrf6-21" value="Extraer Datos de las Tablas" style="rounded=1;whiteSpace=wrap;html=1;fillColor=#e1d5e7;strokeColor=#9673a6;" parent="1" vertex="1">
          <mxGeometry x="2882.5" y="1091.5" width="207.5" height="52.5" as="geometry" />
        </mxCell>
        <mxCell id="g_pBsq-3c6XKnpf-Vrf6-22" value="&lt;b&gt;Fuente de Datos:&lt;/b&gt;&lt;div&gt;&lt;ul&gt;&lt;li style=&quot;text-align: left;&quot;&gt;&lt;span style=&quot;background-color: initial;&quot;&gt;Tabla:&amp;nbsp;&lt;/span&gt;G5_Aeropuerto&lt;/li&gt;&lt;li style=&quot;text-align: left;&quot;&gt;Tabla: G5_MiniDimensionAeropuerto&lt;/li&gt;&lt;li style=&quot;text-align: left;&quot;&gt;Tabla: Fecha&lt;/li&gt;&lt;/ul&gt;&lt;div&gt;&lt;br&gt;&lt;/div&gt;&lt;div style=&quot;&quot;&gt;&lt;b&gt;Campos:&lt;/b&gt;&lt;/div&gt;&lt;/div&gt;&lt;div style=&quot;&quot;&gt;&lt;ul&gt;&lt;li style=&quot;border-color: var(--border-color); text-align: left;&quot;&gt;idMini_DWH&lt;/li&gt;&lt;li style=&quot;border-color: var(--border-color); text-align: left;&quot;&gt;idAeropuerto_DWH&lt;/li&gt;&lt;li style=&quot;border-color: var(--border-color); text-align: left;&quot;&gt;idFecha&lt;/li&gt;&lt;/ul&gt;&lt;/div&gt;" style="rounded=1;whiteSpace=wrap;html=1;glass=0;shadow=0;align=center;fillColor=#fff2cc;strokeColor=#d6b656;" parent="1" vertex="1">
          <mxGeometry x="2520" y="1062" width="250" height="210" as="geometry" />
        </mxCell>
        <mxCell id="g_pBsq-3c6XKnpf-Vrf6-23" style="edgeStyle=orthogonalEdgeStyle;rounded=0;orthogonalLoop=1;jettySize=auto;html=1;entryX=0.5;entryY=0;entryDx=0;entryDy=0;" parent="1" source="g_pBsq-3c6XKnpf-Vrf6-24" target="g_pBsq-3c6XKnpf-Vrf6-17" edge="1">
          <mxGeometry relative="1" as="geometry" />
        </mxCell>
        <mxCell id="g_pBsq-3c6XKnpf-Vrf6-24" value="2. Transformaciones" style="rounded=0;whiteSpace=wrap;html=1;verticalAlign=top;fontStyle=1;fillColor=#f8cecc;strokeColor=#b85450;" parent="1" vertex="1">
          <mxGeometry x="2810" y="1187" width="350" height="215" as="geometry" />
        </mxCell>
        <mxCell id="g_pBsq-3c6XKnpf-Vrf6-25" value="T1. Creación de la columna FechaInicio a partir de la columna Anio conctanenando &#39;0101&#39;." style="rounded=0;whiteSpace=wrap;html=1;" parent="1" vertex="1">
          <mxGeometry x="2840" y="1217" width="297.5" height="50" as="geometry" />
        </mxCell>
        <mxCell id="g_pBsq-3c6XKnpf-Vrf6-26" style="edgeStyle=orthogonalEdgeStyle;rounded=0;orthogonalLoop=1;jettySize=auto;html=1;entryX=0.999;entryY=0.267;entryDx=0;entryDy=0;entryPerimeter=0;" parent="1" source="g_pBsq-3c6XKnpf-Vrf6-21" target="g_pBsq-3c6XKnpf-Vrf6-22" edge="1">
          <mxGeometry relative="1" as="geometry" />
        </mxCell>
        <mxCell id="g_pBsq-3c6XKnpf-Vrf6-27" value="T3.Creación de lacolumna Cambio con el valor &#39;1&#39;." style="rounded=0;whiteSpace=wrap;html=1;" parent="1" vertex="1">
          <mxGeometry x="2840" y="1335" width="297.5" height="50" as="geometry" />
        </mxCell>
        <mxCell id="g_pBsq-3c6XKnpf-Vrf6-28" value="T3. Crear la columna&amp;nbsp;&lt;span style=&quot;text-align: left; background-color: initial;&quot;&gt;rangoNumeroVuelosOrigen categorizando&lt;/span&gt;&amp;nbsp;la información en&amp;nbsp;R1:[0-valor del 25%), R2:[Valor del 25%,Valor del 50%), R3: [Valor del 50%, Valor del 75%), R4: &amp;gt; valor del 75%." style="rounded=0;whiteSpace=wrap;html=1;" parent="1" vertex="1">
          <mxGeometry x="2177.75" y="1347.88" width="297.5" height="66" as="geometry" />
        </mxCell>
        <mxCell id="g_pBsq-3c6XKnpf-Vrf6-29" value="T4. Crear la columna&amp;nbsp;&lt;span style=&quot;text-align: left; background-color: initial;&quot;&gt;rangoLongitudPista&lt;/span&gt;&lt;br&gt;&lt;span style=&quot;text-align: left; background-color: initial;&quot;&gt;categorizando&lt;/span&gt;&amp;nbsp;la información en&amp;nbsp;R1:[0-valor del 25%), R2:[Valor del 25%,Valor del 50%), R3: [Valor del 50%, Valor del 75%), R4: &amp;gt; valor del 75%." style="rounded=0;whiteSpace=wrap;html=1;" parent="1" vertex="1">
          <mxGeometry x="2177.25" y="1422" width="297.5" height="66" as="geometry" />
        </mxCell>
        <mxCell id="g_pBsq-3c6XKnpf-Vrf6-30" value="T5. Crear la columna&amp;nbsp;&lt;span style=&quot;text-align: left; background-color: initial;&quot;&gt;rangoAnchoPista&lt;/span&gt;&lt;br&gt;categorizando&amp;nbsp;la información en&amp;nbsp;R1:[0-valor del 25%), R2:[Valor del 25%,Valor del 50%), R3: [Valor del 50%, Valor del 75%), R4: &amp;gt; valor del 75%." style="rounded=0;whiteSpace=wrap;html=1;" parent="1" vertex="1">
          <mxGeometry x="2175" y="1497" width="297.5" height="66" as="geometry" />
        </mxCell>
        <mxCell id="g_pBsq-3c6XKnpf-Vrf6-31" value="T2. Creación de la&amp;nbsp;columna FechaFin a partir de la columna Anio conctanenando &#39;1231&#39;." style="rounded=0;whiteSpace=wrap;html=1;" parent="1" vertex="1">
          <mxGeometry x="2840" y="1275.5" width="297.5" height="50" as="geometry" />
        </mxCell>
        <mxCell id="_EG7j54g6REtRX6zZQ29-1" value="Geografia con Demografia" style="rounded=0;whiteSpace=wrap;html=1;fontSize=16;fontStyle=1;fillColor=#dae8fc;strokeColor=#6c8ebf;" parent="1" vertex="1">
          <mxGeometry x="1880" y="2140" width="640" height="40" as="geometry" />
        </mxCell>
        <mxCell id="_EG7j54g6REtRX6zZQ29-4" style="edgeStyle=orthogonalEdgeStyle;rounded=0;orthogonalLoop=1;jettySize=auto;html=1;exitX=0.5;exitY=1;exitDx=0;exitDy=0;entryX=0.5;entryY=0;entryDx=0;entryDy=0;" parent="1" source="_EG7j54g6REtRX6zZQ29-5" target="_EG7j54g6REtRX6zZQ29-9" edge="1">
          <mxGeometry relative="1" as="geometry" />
        </mxCell>
        <mxCell id="_EG7j54g6REtRX6zZQ29-5" value="1. Extraer Información de Tablas" style="rounded=0;whiteSpace=wrap;html=1;verticalAlign=top;fontStyle=1;fillColor=#f8cecc;strokeColor=#b85450;" parent="1" vertex="1">
          <mxGeometry x="2140" y="2200" width="380" height="110" as="geometry" />
        </mxCell>
        <mxCell id="_EG7j54g6REtRX6zZQ29-6" value="Extraer PIB&lt;div&gt;Extraer Proyecciones&lt;/div&gt;&lt;div&gt;Extraer Departamentos&lt;/div&gt;" style="rounded=1;whiteSpace=wrap;html=1;fillColor=#e1d5e7;strokeColor=#9673a6;" parent="1" vertex="1">
          <mxGeometry x="2242.5" y="2227.5" width="170" height="75" as="geometry" />
        </mxCell>
        <mxCell id="_EG7j54g6REtRX6zZQ29-7" value="&lt;b&gt;Fuente de Datos:&lt;/b&gt;&lt;div&gt;&lt;ul&gt;&lt;li style=&quot;text-align: left;&quot;&gt;Tabla: PIB&lt;/li&gt;&lt;li style=&quot;text-align: left;&quot;&gt;Tabla: Proyecciones&lt;/li&gt;&lt;li style=&quot;text-align: left;&quot;&gt;Tabla: Divipola&lt;/li&gt;&lt;/ul&gt;&lt;div&gt;&lt;br&gt;&lt;/div&gt;&lt;div style=&quot;&quot;&gt;&lt;b&gt;Campos:&lt;/b&gt;&lt;/div&gt;&lt;/div&gt;&lt;div style=&quot;&quot;&gt;&lt;ul&gt;&lt;li style=&quot;text-align: left;&quot;&gt;CodigoDepartamento.&lt;/li&gt;&lt;li style=&quot;text-align: left;&quot;&gt;Departamentos&lt;/li&gt;&lt;li style=&quot;text-align: left;&quot;&gt;2005&lt;/li&gt;&lt;li style=&quot;text-align: left;&quot;&gt;2006&lt;/li&gt;&lt;li style=&quot;text-align: left;&quot;&gt;2007&lt;/li&gt;&lt;li style=&quot;text-align: left;&quot;&gt;2008&lt;/li&gt;&lt;li style=&quot;text-align: left;&quot;&gt;2009&lt;/li&gt;&lt;li style=&quot;text-align: left;&quot;&gt;2010&lt;/li&gt;&lt;li style=&quot;text-align: left;&quot;&gt;2011&lt;/li&gt;&lt;li style=&quot;text-align: left;&quot;&gt;2012&lt;/li&gt;&lt;li style=&quot;text-align: left;&quot;&gt;2013&lt;/li&gt;&lt;li style=&quot;text-align: left;&quot;&gt;2014&lt;/li&gt;&lt;li style=&quot;text-align: left;&quot;&gt;2015&lt;/li&gt;&lt;li style=&quot;text-align: left;&quot;&gt;2016&lt;/li&gt;&lt;li style=&quot;text-align: left;&quot;&gt;2017&lt;/li&gt;&lt;li style=&quot;text-align: left;&quot;&gt;DP&lt;/li&gt;&lt;li style=&quot;text-align: left;&quot;&gt;DPNom&lt;/li&gt;&lt;li style=&quot;text-align: left;&quot;&gt;AÑO&lt;/li&gt;&lt;li style=&quot;text-align: left;&quot;&gt;AREA GEOGRAFICA&lt;/li&gt;&lt;li style=&quot;text-align: left;&quot;&gt;Total Hombres&lt;/li&gt;&lt;li style=&quot;text-align: left;&quot;&gt;Total Mujeres&lt;/li&gt;&lt;li style=&quot;text-align: left;&quot;&gt;CodigoDepartamento&lt;br&gt;&lt;/li&gt;&lt;li style=&quot;text-align: left;&quot;&gt;CodigoMunicipio&lt;br&gt;&lt;/li&gt;&lt;li style=&quot;text-align: left;&quot;&gt;CodigoCentroPoblado&lt;br&gt;&lt;/li&gt;&lt;li style=&quot;text-align: left;&quot;&gt;NombreDepartamento&lt;br&gt;&lt;/li&gt;&lt;li style=&quot;text-align: left;&quot;&gt;NombreMunicipio&lt;br&gt;&lt;/li&gt;&lt;li style=&quot;text-align: left;&quot;&gt;NombreAreaMetropolitana&lt;/li&gt;&lt;li style=&quot;text-align: left;&quot;&gt;Longitud&lt;br&gt;&lt;/li&gt;&lt;li style=&quot;text-align: left;&quot;&gt;Latitud&lt;/li&gt;&lt;/ul&gt;&lt;/div&gt;" style="rounded=1;whiteSpace=wrap;html=1;glass=0;shadow=0;align=center;fillColor=#fff2cc;strokeColor=#d6b656;" parent="1" vertex="1">
          <mxGeometry x="1880" y="2200" width="220" height="560" as="geometry" />
        </mxCell>
        <mxCell id="_EG7j54g6REtRX6zZQ29-8" style="edgeStyle=orthogonalEdgeStyle;rounded=0;orthogonalLoop=1;jettySize=auto;html=1;exitX=0.5;exitY=1;exitDx=0;exitDy=0;entryX=0.5;entryY=0;entryDx=0;entryDy=0;" parent="1" source="_EG7j54g6REtRX6zZQ29-9" target="_EG7j54g6REtRX6zZQ29-2" edge="1">
          <mxGeometry relative="1" as="geometry">
            <mxPoint x="2330" y="2990" as="sourcePoint" />
          </mxGeometry>
        </mxCell>
        <mxCell id="_EG7j54g6REtRX6zZQ29-9" value="2. Transformaciones" style="rounded=0;whiteSpace=wrap;html=1;verticalAlign=top;fontStyle=1;fillColor=#f8cecc;strokeColor=#b85450;" parent="1" vertex="1">
          <mxGeometry x="2140" y="2340" width="380" height="760" as="geometry" />
        </mxCell>
        <mxCell id="_EG7j54g6REtRX6zZQ29-10" value="T1. Eliminar Duplicados Totales de Divipola" style="rounded=0;whiteSpace=wrap;html=1;" parent="1" vertex="1">
          <mxGeometry x="2162.5" y="2370" width="335" height="30" as="geometry" />
        </mxCell>
        <mxCell id="_EG7j54g6REtRX6zZQ29-11" value="T2. Corregir texto d0, c0 para nombreDepartamento y nombreMunicipio bogota" style="rounded=0;whiteSpace=wrap;html=1;" parent="1" vertex="1">
          <mxGeometry x="2162.5" y="2406" width="335" height="35" as="geometry" />
        </mxCell>
        <mxCell id="_EG7j54g6REtRX6zZQ29-12" value="T3. Pasar nombreDepartamento a Mayuscula" style="rounded=0;whiteSpace=wrap;html=1;" parent="1" vertex="1">
          <mxGeometry x="2162.5" y="2447.5" width="335" height="32.5" as="geometry" />
        </mxCell>
        <mxCell id="_EG7j54g6REtRX6zZQ29-13" style="edgeStyle=orthogonalEdgeStyle;rounded=0;orthogonalLoop=1;jettySize=auto;html=1;exitX=0;exitY=0.5;exitDx=0;exitDy=0;entryX=1.01;entryY=0.149;entryDx=0;entryDy=0;entryPerimeter=0;" parent="1" source="_EG7j54g6REtRX6zZQ29-6" target="_EG7j54g6REtRX6zZQ29-7" edge="1">
          <mxGeometry relative="1" as="geometry" />
        </mxCell>
        <mxCell id="_EG7j54g6REtRX6zZQ29-14" value="" style="group" parent="1" vertex="1" connectable="0">
          <mxGeometry x="2140" y="3130" width="380" height="360" as="geometry" />
        </mxCell>
        <mxCell id="_EG7j54g6REtRX6zZQ29-2" value="3. Carga deDatos" style="rounded=0;whiteSpace=wrap;html=1;verticalAlign=top;fontStyle=1;fillColor=#f8cecc;strokeColor=#b85450;" parent="_EG7j54g6REtRX6zZQ29-14" vertex="1">
          <mxGeometry width="380" height="360" as="geometry" />
        </mxCell>
        <mxCell id="_EG7j54g6REtRX6zZQ29-3" value="&lt;div&gt;&lt;b style=&quot;text-align: left; background-color: initial;&quot;&gt;Destino de Datos:&lt;/b&gt;&lt;br&gt;&lt;ul&gt;&lt;li style=&quot;text-align: left;&quot;&gt;Tabla: G5_GeografiaConDemografia&lt;/li&gt;&lt;/ul&gt;&lt;div style=&quot;&quot;&gt;&lt;b&gt;Campos:&lt;/b&gt;&lt;/div&gt;&lt;/div&gt;&lt;div style=&quot;&quot;&gt;&lt;ul&gt;&lt;li style=&quot;text-align: left;&quot;&gt;&lt;span style=&quot;background-color: initial;&quot;&gt;ID_Municipio_DWH&lt;/span&gt;&lt;br&gt;&lt;/li&gt;&lt;li style=&quot;text-align: left;&quot;&gt;ID_Municipio_T&lt;/li&gt;&lt;li style=&quot;text-align: left;&quot;&gt;NombreMunicipio&lt;/li&gt;&lt;li style=&quot;text-align: left;&quot;&gt;NombreDepartamento&lt;/li&gt;&lt;li style=&quot;text-align: left;&quot;&gt;AreaMetropolitana&lt;/li&gt;&lt;li style=&quot;text-align: left;&quot;&gt;Longitud&lt;/li&gt;&lt;li style=&quot;text-align: left;&quot;&gt;Latitud&lt;/li&gt;&lt;li style=&quot;text-align: left;&quot;&gt;PIB&lt;/li&gt;&lt;li style=&quot;text-align: left;&quot;&gt;TotalHombres&lt;/li&gt;&lt;li style=&quot;text-align: left;&quot;&gt;TotalMujeres&lt;/li&gt;&lt;li style=&quot;text-align: left;&quot;&gt;FechaInicial&lt;/li&gt;&lt;li style=&quot;text-align: left;&quot;&gt;FechaFinal&lt;/li&gt;&lt;li style=&quot;text-align: left;&quot;&gt;Version&lt;/li&gt;&lt;/ul&gt;&lt;/div&gt;" style="rounded=1;whiteSpace=wrap;html=1;glass=0;shadow=0;align=center;fillColor=#fff2cc;strokeColor=#d6b656;" parent="_EG7j54g6REtRX6zZQ29-14" vertex="1">
          <mxGeometry x="30" y="30" width="315" height="290" as="geometry" />
        </mxCell>
        <mxCell id="_EG7j54g6REtRX6zZQ29-15" value="T4. Agregar columnas de fechaInicial, fechaFinal y version" style="rounded=0;whiteSpace=wrap;html=1;" parent="1" vertex="1">
          <mxGeometry x="2162" y="2485" width="335" height="32.5" as="geometry" />
        </mxCell>
        <mxCell id="_EG7j54g6REtRX6zZQ29-16" value="T5. Renombrar columna codigoCentroPoblado a ID_Municipio_T" style="rounded=0;whiteSpace=wrap;html=1;" parent="1" vertex="1">
          <mxGeometry x="2162.5" y="2526" width="335" height="32.5" as="geometry" />
        </mxCell>
        <mxCell id="_EG7j54g6REtRX6zZQ29-17" value="T6. Generar ID_Municipio_DWH autogenerada&amp;nbsp;" style="rounded=0;whiteSpace=wrap;html=1;" parent="1" vertex="1">
          <mxGeometry x="2162" y="2567.5" width="335" height="32.5" as="geometry" />
        </mxCell>
        <mxCell id="_EG7j54g6REtRX6zZQ29-18" value="T7. Llenar datos null con texto missing&amp;nbsp;" style="rounded=0;whiteSpace=wrap;html=1;" parent="1" vertex="1">
          <mxGeometry x="2161.25" y="2609" width="335" height="32.5" as="geometry" />
        </mxCell>
        <mxCell id="_EG7j54g6REtRX6zZQ29-19" value="T8. Renombrar Departamentos con diccionario de divipola" style="rounded=0;whiteSpace=wrap;html=1;" parent="1" vertex="1">
          <mxGeometry x="2161.25" y="2650" width="335" height="32.5" as="geometry" />
        </mxCell>
        <mxCell id="_EG7j54g6REtRX6zZQ29-20" value="T9. Eliminar Duplicados Total de PIB" style="rounded=0;whiteSpace=wrap;html=1;" parent="1" vertex="1">
          <mxGeometry x="2160.25" y="2690" width="335" height="32.5" as="geometry" />
        </mxCell>
        <mxCell id="_EG7j54g6REtRX6zZQ29-21" value="T10. Cambiar a Entero todos los valores de PIB" style="rounded=0;whiteSpace=wrap;html=1;" parent="1" vertex="1">
          <mxGeometry x="2160" y="2727.5" width="335" height="32.5" as="geometry" />
        </mxCell>
        <mxCell id="_EG7j54g6REtRX6zZQ29-22" value="T11. Trasponer años de columna a fila y crear columna año" style="rounded=0;whiteSpace=wrap;html=1;" parent="1" vertex="1">
          <mxGeometry x="2159" y="2770" width="335" height="32.5" as="geometry" />
        </mxCell>
        <mxCell id="_EG7j54g6REtRX6zZQ29-23" value="T12. Eliminar duplicados totales de Proyecciones" style="rounded=0;whiteSpace=wrap;html=1;" parent="1" vertex="1">
          <mxGeometry x="2159" y="2808.75" width="335" height="32.5" as="geometry" />
        </mxCell>
        <mxCell id="_EG7j54g6REtRX6zZQ29-24" value="T13. Borrar e interpolar Proyeccion hombres 2016 Valle del Cauca" style="rounded=0;whiteSpace=wrap;html=1;" parent="1" vertex="1">
          <mxGeometry x="2158.5" y="2850" width="335" height="32.5" as="geometry" />
        </mxCell>
        <mxCell id="_EG7j54g6REtRX6zZQ29-25" value="T14. Borrar e interpolar Proyeccion mujeres 2009 Vichada" style="rounded=0;whiteSpace=wrap;html=1;" parent="1" vertex="1">
          <mxGeometry x="2159" y="2890" width="335" height="32.5" as="geometry" />
        </mxCell>
        <mxCell id="_EG7j54g6REtRX6zZQ29-26" value="T15. Filtrar por AREA GEOGRAFICA total" style="rounded=0;whiteSpace=wrap;html=1;" parent="1" vertex="1">
          <mxGeometry x="2159" y="2930" width="335" height="32.5" as="geometry" />
        </mxCell>
        <mxCell id="_EG7j54g6REtRX6zZQ29-27" value="T16. Remover columnas de 0-100 proyecciones" style="rounded=0;whiteSpace=wrap;html=1;" parent="1" vertex="1">
          <mxGeometry x="2158.5" y="2967.5" width="335" height="32.5" as="geometry" />
        </mxCell>
        <mxCell id="_EG7j54g6REtRX6zZQ29-28" value="T16. Unir divipola con pib y proyecciones para año 2005" style="rounded=0;whiteSpace=wrap;html=1;" parent="1" vertex="1">
          <mxGeometry x="2158.5" y="3010" width="335" height="32.5" as="geometry" />
        </mxCell>
        <mxCell id="_EG7j54g6REtRX6zZQ29-29" value="T17. Adicionar a GeografiaconDemografia, datos de divipola, pib y proyecciones para años 2006-2017 aumentando version" style="rounded=0;whiteSpace=wrap;html=1;" parent="1" vertex="1">
          <mxGeometry x="2158.5" y="3050" width="335" height="32.5" as="geometry" />
        </mxCell>
        <mxCell id="GkRp8IhUm-u5ejVtObmv-1" value="Fecha" style="rounded=0;whiteSpace=wrap;html=1;fontSize=16;fontStyle=1;fillColor=#dae8fc;strokeColor=#6c8ebf;" parent="1" vertex="1">
          <mxGeometry x="2520" y="20" width="640" height="40" as="geometry" />
        </mxCell>
        <mxCell id="GkRp8IhUm-u5ejVtObmv-2" value="3. Carga deDatos" style="rounded=0;whiteSpace=wrap;html=1;verticalAlign=top;fontStyle=1;fillColor=#f8cecc;strokeColor=#b85450;" parent="1" vertex="1">
          <mxGeometry x="2780" y="700" width="380" height="220" as="geometry" />
        </mxCell>
        <mxCell id="GkRp8IhUm-u5ejVtObmv-3" value="&lt;div&gt;&lt;b style=&quot;text-align: left; background-color: initial;&quot;&gt;Destino de Datos:&lt;/b&gt;&lt;br&gt;&lt;ul&gt;&lt;li style=&quot;text-align: left;&quot;&gt;Tabla: G5_Fecha.&lt;/li&gt;&lt;/ul&gt;&lt;div style=&quot;&quot;&gt;&lt;b&gt;Campos:&lt;/b&gt;&lt;/div&gt;&lt;/div&gt;&lt;div style=&quot;&quot;&gt;&lt;ul&gt;&lt;li style=&quot;text-align: left;&quot;&gt;idFecha.&lt;/li&gt;&lt;li style=&quot;text-align: left;&quot;&gt;descripcion&lt;/li&gt;&lt;li style=&quot;text-align: left;&quot;&gt;Mes.&lt;/li&gt;&lt;li style=&quot;text-align: left;&quot;&gt;Anio.&lt;/li&gt;&lt;li style=&quot;text-align: left;&quot;&gt;Dia&lt;/li&gt;&lt;/ul&gt;&lt;/div&gt;" style="rounded=1;whiteSpace=wrap;html=1;glass=0;shadow=0;align=center;fillColor=#fff2cc;strokeColor=#d6b656;" parent="1" vertex="1">
          <mxGeometry x="2815" y="740" width="310" height="170" as="geometry" />
        </mxCell>
        <mxCell id="GkRp8IhUm-u5ejVtObmv-4" style="edgeStyle=orthogonalEdgeStyle;rounded=0;orthogonalLoop=1;jettySize=auto;html=1;exitX=0.5;exitY=1;exitDx=0;exitDy=0;entryX=0.5;entryY=0;entryDx=0;entryDy=0;" parent="1" source="GkRp8IhUm-u5ejVtObmv-5" target="GkRp8IhUm-u5ejVtObmv-10" edge="1">
          <mxGeometry relative="1" as="geometry" />
        </mxCell>
        <mxCell id="GkRp8IhUm-u5ejVtObmv-5" value="1. Extraer Información de Fecha" style="rounded=0;whiteSpace=wrap;html=1;verticalAlign=top;fontStyle=1;fillColor=#f8cecc;strokeColor=#b85450;" parent="1" vertex="1">
          <mxGeometry x="2780" y="80" width="380" height="110" as="geometry" />
        </mxCell>
        <mxCell id="GkRp8IhUm-u5ejVtObmv-6" style="edgeStyle=orthogonalEdgeStyle;rounded=0;orthogonalLoop=1;jettySize=auto;html=1;exitX=0;exitY=0.5;exitDx=0;exitDy=0;entryX=1.014;entryY=0.365;entryDx=0;entryDy=0;entryPerimeter=0;" parent="1" source="GkRp8IhUm-u5ejVtObmv-7" target="GkRp8IhUm-u5ejVtObmv-8" edge="1">
          <mxGeometry relative="1" as="geometry">
            <Array as="points" />
          </mxGeometry>
        </mxCell>
        <mxCell id="GkRp8IhUm-u5ejVtObmv-7" value="Extraer Fecha" style="rounded=1;whiteSpace=wrap;html=1;fillColor=#e1d5e7;strokeColor=#9673a6;" parent="1" vertex="1">
          <mxGeometry x="2880" y="115" width="170" height="60" as="geometry" />
        </mxCell>
        <mxCell id="GkRp8IhUm-u5ejVtObmv-8" value="&lt;b&gt;Fuente de Datos:&lt;/b&gt;&lt;div&gt;&lt;ul&gt;&lt;li style=&quot;text-align: left;&quot;&gt;Tabla: Vuelos y Aeropuertos&lt;/li&gt;&lt;/ul&gt;&lt;div&gt;&lt;br&gt;&lt;/div&gt;&lt;div style=&quot;&quot;&gt;&lt;b&gt;Campos:&lt;/b&gt;&lt;/div&gt;&lt;/div&gt;&lt;div style=&quot;&quot;&gt;&lt;ul&gt;&lt;li style=&quot;text-align: left;&quot;&gt;Vuelos.ano&lt;/li&gt;&lt;li style=&quot;text-align: left;&quot;&gt;Vuelos.mes&lt;/li&gt;&lt;li style=&quot;text-align: left;&quot;&gt;Aeropuertos.fecha_construccion&lt;/li&gt;&lt;li style=&quot;text-align: left;&quot;&gt;Aeropuertos.fecha_vigencia&lt;/li&gt;&lt;/ul&gt;&lt;/div&gt;" style="rounded=1;whiteSpace=wrap;html=1;glass=0;shadow=0;align=center;fillColor=#fff2cc;strokeColor=#d6b656;" parent="1" vertex="1">
          <mxGeometry x="2520" y="80" width="240" height="180" as="geometry" />
        </mxCell>
        <mxCell id="GkRp8IhUm-u5ejVtObmv-9" style="edgeStyle=orthogonalEdgeStyle;rounded=0;orthogonalLoop=1;jettySize=auto;html=1;entryX=0.5;entryY=0;entryDx=0;entryDy=0;" parent="1" source="GkRp8IhUm-u5ejVtObmv-10" target="GkRp8IhUm-u5ejVtObmv-2" edge="1">
          <mxGeometry relative="1" as="geometry">
            <mxPoint x="2970" y="780" as="sourcePoint" />
          </mxGeometry>
        </mxCell>
        <mxCell id="GkRp8IhUm-u5ejVtObmv-10" value="2. Transformaciones" style="rounded=0;whiteSpace=wrap;html=1;verticalAlign=top;fontStyle=1;fillColor=#f8cecc;strokeColor=#b85450;" parent="1" vertex="1">
          <mxGeometry x="2780" y="220" width="380" height="440" as="geometry" />
        </mxCell>
        <mxCell id="GkRp8IhUm-u5ejVtObmv-11" value="T5. Generar columna descripción&amp;nbsp;quen tiene la fecha en con el siguiente formato date(yyyyMMdd)" style="rounded=0;whiteSpace=wrap;html=1;" parent="1" vertex="1">
          <mxGeometry x="2802.5" y="510" width="330" height="50" as="geometry" />
        </mxCell>
        <mxCell id="GkRp8IhUm-u5ejVtObmv-12" value="T3. crear dataframe con los campos vuelos.ano y vuelos.mes,&amp;nbsp; Eliminar Duplicados." style="rounded=0;whiteSpace=wrap;html=1;" parent="1" vertex="1">
          <mxGeometry x="2802.5" y="380" width="330" height="50" as="geometry" />
        </mxCell>
        <mxCell id="GkRp8IhUm-u5ejVtObmv-13" value="T4: unificar los 3 dataframes y eliminar duplicados." style="rounded=0;whiteSpace=wrap;html=1;" parent="1" vertex="1">
          <mxGeometry x="2802.5" y="446" width="330" height="50" as="geometry" />
        </mxCell>
        <mxCell id="GkRp8IhUm-u5ejVtObmv-14" value="TipoVuelo" style="rounded=0;whiteSpace=wrap;html=1;fontSize=16;fontStyle=1;fillColor=#dae8fc;strokeColor=#6c8ebf;" parent="1" vertex="1">
          <mxGeometry x="1200" y="20" width="640" height="40" as="geometry" />
        </mxCell>
        <mxCell id="GkRp8IhUm-u5ejVtObmv-15" value="3. Carga deDatos" style="rounded=0;whiteSpace=wrap;html=1;verticalAlign=top;fontStyle=1;fillColor=#f8cecc;strokeColor=#b85450;" parent="1" vertex="1">
          <mxGeometry x="1460" y="630" width="380" height="220" as="geometry" />
        </mxCell>
        <mxCell id="GkRp8IhUm-u5ejVtObmv-16" value="&lt;div&gt;&lt;b style=&quot;text-align: left; background-color: initial;&quot;&gt;Destino de Datos:&lt;/b&gt;&lt;br&gt;&lt;ul&gt;&lt;li style=&quot;text-align: left;&quot;&gt;Tabla: G5_TipoVuelo&lt;/li&gt;&lt;/ul&gt;&lt;div style=&quot;&quot;&gt;&lt;b&gt;Campos:&lt;/b&gt;&lt;/div&gt;&lt;/div&gt;&lt;div style=&quot;&quot;&gt;&lt;ul&gt;&lt;li style=&quot;text-align: left;&quot;&gt;idTipoVuelo_DWH&lt;/li&gt;&lt;li style=&quot;text-align: left;&quot;&gt;idTipovuelo_T&lt;/li&gt;&lt;li style=&quot;text-align: left;&quot;&gt;nombreTipo&lt;/li&gt;&lt;li style=&quot;text-align: left;&quot;&gt;tipoEquipo&lt;/li&gt;&lt;/ul&gt;&lt;/div&gt;" style="rounded=1;whiteSpace=wrap;html=1;glass=0;shadow=0;align=center;fillColor=#fff2cc;strokeColor=#d6b656;" parent="1" vertex="1">
          <mxGeometry x="1492.5" y="676" width="315" height="154" as="geometry" />
        </mxCell>
        <mxCell id="GkRp8IhUm-u5ejVtObmv-17" style="edgeStyle=orthogonalEdgeStyle;rounded=0;orthogonalLoop=1;jettySize=auto;html=1;exitX=0.5;exitY=1;exitDx=0;exitDy=0;entryX=0.5;entryY=0;entryDx=0;entryDy=0;" parent="1" source="GkRp8IhUm-u5ejVtObmv-18" target="GkRp8IhUm-u5ejVtObmv-21" edge="1">
          <mxGeometry relative="1" as="geometry" />
        </mxCell>
        <mxCell id="GkRp8IhUm-u5ejVtObmv-18" value="1. Extraer Información de Tablas" style="rounded=0;whiteSpace=wrap;html=1;verticalAlign=top;fontStyle=1;fillColor=#f8cecc;strokeColor=#b85450;" parent="1" vertex="1">
          <mxGeometry x="1460" y="80" width="380" height="100" as="geometry" />
        </mxCell>
        <mxCell id="GkRp8IhUm-u5ejVtObmv-19" value="Extraer Datos de tipos de vuelos" style="rounded=1;whiteSpace=wrap;html=1;fillColor=#e1d5e7;strokeColor=#9673a6;" parent="1" vertex="1">
          <mxGeometry x="1562.5" y="107.5" width="170" height="52.5" as="geometry" />
        </mxCell>
        <mxCell id="GkRp8IhUm-u5ejVtObmv-20" value="&lt;b style=&quot;font-size: 12px;&quot;&gt;&lt;font style=&quot;font-size: 12px;&quot;&gt;Fuente de Datos:&lt;/font&gt;&lt;/b&gt;&lt;div style=&quot;font-size: 12px;&quot;&gt;&lt;ul style=&quot;&quot;&gt;&lt;li style=&quot;text-align: left;&quot;&gt;&lt;font style=&quot;font-size: 12px;&quot;&gt;Tabla: Vuelos&lt;/font&gt;&lt;/li&gt;&lt;/ul&gt;&lt;div style=&quot;&quot;&gt;&lt;font style=&quot;font-size: 12px;&quot;&gt;&lt;br style=&quot;&quot;&gt;&lt;/font&gt;&lt;/div&gt;&lt;div style=&quot;&quot;&gt;&lt;b style=&quot;&quot;&gt;&lt;font style=&quot;font-size: 12px;&quot;&gt;Campos:&lt;/font&gt;&lt;/b&gt;&lt;/div&gt;&lt;/div&gt;&lt;div style=&quot;&quot;&gt;&lt;ul style=&quot;font-size: 12px;&quot;&gt;&lt;li style=&quot;border-color: var(--border-color); text-align: left;&quot;&gt;&lt;font style=&quot;font-size: 12px;&quot;&gt;tipo_vuelo&lt;br style=&quot;&quot;&gt;&lt;/font&gt;&lt;/li&gt;&lt;li style=&quot;border-color: var(--border-color); text-align: left;&quot;&gt;&lt;font style=&quot;font-size: 12px;&quot;&gt;tipo_equipo&lt;br style=&quot;&quot;&gt;&lt;/font&gt;&lt;/li&gt;&lt;/ul&gt;&lt;b style=&quot;font-size: 12px; background-color: initial;&quot;&gt;&lt;font style=&quot;font-size: 12px;&quot;&gt;Campos No Usados:&lt;/font&gt;&lt;/b&gt;&lt;ul style=&quot;&quot;&gt;&lt;li style=&quot;text-align: left;&quot;&gt;&lt;span style=&quot;background-color: initial;&quot;&gt;ano&lt;/span&gt;&lt;br&gt;&lt;/li&gt;&lt;li style=&quot;text-align: left;&quot;&gt;mes&lt;/li&gt;&lt;li style=&quot;text-align: left;&quot;&gt;origen&lt;/li&gt;&lt;li style=&quot;text-align: left;&quot;&gt;destino&lt;/li&gt;&lt;li style=&quot;text-align: left;&quot;&gt;trafico&lt;/li&gt;&lt;li style=&quot;text-align: left;&quot;&gt;empresa&lt;/li&gt;&lt;li style=&quot;text-align: left;&quot;&gt;vuelos&lt;/li&gt;&lt;li style=&quot;text-align: left;&quot;&gt;sillas&lt;/li&gt;&lt;li style=&quot;text-align: left;&quot;&gt;carga_ofrecida&lt;/li&gt;&lt;li style=&quot;text-align: left;&quot;&gt;pasajeros&lt;/li&gt;&lt;li style=&quot;text-align: left;&quot;&gt;carga_bordo&lt;br&gt;&lt;/li&gt;&lt;/ul&gt;&lt;/div&gt;" style="rounded=1;whiteSpace=wrap;html=1;glass=0;shadow=0;align=center;fillColor=#fff2cc;strokeColor=#d6b656;fontSize=9;" parent="1" vertex="1">
          <mxGeometry x="1200" y="80" width="220" height="310" as="geometry" />
        </mxCell>
        <mxCell id="GkRp8IhUm-u5ejVtObmv-21" value="2. Transformaciones" style="rounded=0;whiteSpace=wrap;html=1;verticalAlign=top;fontStyle=1;fillColor=#f8cecc;strokeColor=#b85450;" parent="1" vertex="1">
          <mxGeometry x="1460" y="205" width="380" height="375" as="geometry" />
        </mxCell>
        <mxCell id="GkRp8IhUm-u5ejVtObmv-22" value="T1. Generar un dataframe que contenga unicamente las Columnas tipo_vuelo, tipo_equipo." style="rounded=0;whiteSpace=wrap;html=1;" parent="1" vertex="1">
          <mxGeometry x="1482.5" y="235" width="335" height="50" as="geometry" />
        </mxCell>
        <mxCell id="GkRp8IhUm-u5ejVtObmv-23" value="T2.&amp;nbsp;Eliminar los registros duplicados del Data Frame." style="rounded=0;whiteSpace=wrap;html=1;" parent="1" vertex="1">
          <mxGeometry x="1482.5" y="300" width="335" height="50" as="geometry" />
        </mxCell>
        <mxCell id="GkRp8IhUm-u5ejVtObmv-24" value="T3. Agregar Columna NombreTipo donde se haga el mapeo con las equivalencias dadas por el negocio" style="rounded=0;whiteSpace=wrap;html=1;" parent="1" vertex="1">
          <mxGeometry x="1482.5" y="365" width="335" height="50" as="geometry" />
        </mxCell>
        <mxCell id="GkRp8IhUm-u5ejVtObmv-25" style="edgeStyle=orthogonalEdgeStyle;rounded=0;orthogonalLoop=1;jettySize=auto;html=1;entryX=1.007;entryY=0.173;entryDx=0;entryDy=0;entryPerimeter=0;" parent="1" source="GkRp8IhUm-u5ejVtObmv-19" target="GkRp8IhUm-u5ejVtObmv-20" edge="1">
          <mxGeometry relative="1" as="geometry" />
        </mxCell>
        <mxCell id="GkRp8IhUm-u5ejVtObmv-26" value="Trafico" style="rounded=0;whiteSpace=wrap;html=1;fontSize=16;fontStyle=1;fillColor=#dae8fc;strokeColor=#6c8ebf;" parent="1" vertex="1">
          <mxGeometry x="1860" y="20" width="640" height="40" as="geometry" />
        </mxCell>
        <mxCell id="GkRp8IhUm-u5ejVtObmv-27" value="3. Carga deDatos" style="rounded=0;whiteSpace=wrap;html=1;verticalAlign=top;fontStyle=1;fillColor=#f8cecc;strokeColor=#b85450;" parent="1" vertex="1">
          <mxGeometry x="2120" y="630" width="380" height="220" as="geometry" />
        </mxCell>
        <mxCell id="GkRp8IhUm-u5ejVtObmv-28" value="&lt;div&gt;&lt;b style=&quot;text-align: left; background-color: initial;&quot;&gt;Destino de Datos:&lt;/b&gt;&lt;br&gt;&lt;ul&gt;&lt;li style=&quot;text-align: left;&quot;&gt;Tabla: G5_Trafico&lt;/li&gt;&lt;/ul&gt;&lt;div&gt;&lt;br&gt;&lt;/div&gt;&lt;div style=&quot;&quot;&gt;&lt;b&gt;Campos:&lt;/b&gt;&lt;/div&gt;&lt;/div&gt;&lt;div style=&quot;&quot;&gt;&lt;ul&gt;&lt;li style=&quot;text-align: left;&quot;&gt;IdTrafico_DWH&amp;nbsp;&lt;/li&gt;&lt;li style=&quot;text-align: left;&quot;&gt;idTrafico_T&lt;/li&gt;&lt;li style=&quot;text-align: left;&quot;&gt;NombreTrafico&lt;/li&gt;&lt;/ul&gt;&lt;/div&gt;" style="rounded=1;whiteSpace=wrap;html=1;glass=0;shadow=0;align=center;fillColor=#fff2cc;strokeColor=#d6b656;" parent="1" vertex="1">
          <mxGeometry x="2150" y="670" width="315" height="150" as="geometry" />
        </mxCell>
        <mxCell id="GkRp8IhUm-u5ejVtObmv-29" style="edgeStyle=orthogonalEdgeStyle;rounded=0;orthogonalLoop=1;jettySize=auto;html=1;exitX=0.5;exitY=1;exitDx=0;exitDy=0;entryX=0.5;entryY=0;entryDx=0;entryDy=0;" parent="1" source="GkRp8IhUm-u5ejVtObmv-30" target="GkRp8IhUm-u5ejVtObmv-35" edge="1">
          <mxGeometry relative="1" as="geometry" />
        </mxCell>
        <mxCell id="GkRp8IhUm-u5ejVtObmv-30" value="1. Extraer Información de Tablas" style="rounded=0;whiteSpace=wrap;html=1;verticalAlign=top;fontStyle=1;fillColor=#f8cecc;strokeColor=#b85450;" parent="1" vertex="1">
          <mxGeometry x="2120" y="80" width="380" height="100" as="geometry" />
        </mxCell>
        <mxCell id="GkRp8IhUm-u5ejVtObmv-31" style="edgeStyle=orthogonalEdgeStyle;rounded=0;orthogonalLoop=1;jettySize=auto;html=1;exitX=0;exitY=0.5;exitDx=0;exitDy=0;entryX=1.003;entryY=0.174;entryDx=0;entryDy=0;entryPerimeter=0;" parent="1" source="GkRp8IhUm-u5ejVtObmv-32" target="GkRp8IhUm-u5ejVtObmv-33" edge="1">
          <mxGeometry relative="1" as="geometry">
            <mxPoint x="2252.5" y="64.76923076923094" as="sourcePoint" />
            <mxPoint x="2090" y="140" as="targetPoint" />
            <Array as="points">
              <mxPoint x="2090" y="134" />
            </Array>
          </mxGeometry>
        </mxCell>
        <mxCell id="GkRp8IhUm-u5ejVtObmv-32" value="Extraer Datos de tipo de trafico" style="rounded=1;whiteSpace=wrap;html=1;fillColor=#e1d5e7;strokeColor=#9673a6;" parent="1" vertex="1">
          <mxGeometry x="2222.5" y="107.5" width="170" height="52.5" as="geometry" />
        </mxCell>
        <mxCell id="GkRp8IhUm-u5ejVtObmv-33" value="&lt;b&gt;Fuente de Datos:&lt;/b&gt;&lt;div&gt;&lt;ul&gt;&lt;li style=&quot;&quot;&gt;Tabla: Vuelos&lt;/li&gt;&lt;/ul&gt;&lt;div&gt;&lt;br&gt;&lt;/div&gt;&lt;div style=&quot;&quot;&gt;&lt;div&gt;&lt;b&gt;Campos:&lt;/b&gt;&lt;/div&gt;&lt;div style=&quot;font-size: 9px;&quot;&gt;&lt;ul style=&quot;font-size: 12px;&quot;&gt;&lt;li style=&quot;text-align: left;&quot;&gt;trafico&lt;/li&gt;&lt;/ul&gt;&lt;b style=&quot;font-size: 12px; background-color: initial;&quot;&gt;Campos No Usados:&lt;/b&gt;&lt;ul&gt;&lt;li style=&quot;text-align: left;&quot;&gt;&lt;span style=&quot;background-color: initial;&quot;&gt;ano&lt;/span&gt;&lt;br&gt;&lt;/li&gt;&lt;li style=&quot;text-align: left;&quot;&gt;mes&lt;/li&gt;&lt;li style=&quot;text-align: left;&quot;&gt;origen&lt;/li&gt;&lt;li style=&quot;text-align: left;&quot;&gt;destino&lt;/li&gt;&lt;li style=&quot;border-color: var(--border-color); text-align: left;&quot;&gt;tipo_vuelo&lt;br&gt;&lt;/li&gt;&lt;li style=&quot;border-color: var(--border-color); text-align: left;&quot;&gt;tipo_equipo&lt;/li&gt;&lt;li style=&quot;text-align: left;&quot;&gt;empresa&lt;/li&gt;&lt;li style=&quot;text-align: left;&quot;&gt;vuelos&lt;/li&gt;&lt;li style=&quot;text-align: left;&quot;&gt;sillas&lt;/li&gt;&lt;li style=&quot;text-align: left;&quot;&gt;carga_ofrecida&lt;/li&gt;&lt;li style=&quot;text-align: left;&quot;&gt;pasajeros&lt;/li&gt;&lt;li style=&quot;text-align: left;&quot;&gt;carga_bordo&lt;/li&gt;&lt;/ul&gt;&lt;/div&gt;&lt;/div&gt;&lt;/div&gt;" style="rounded=1;whiteSpace=wrap;html=1;glass=0;shadow=0;align=center;fillColor=#fff2cc;strokeColor=#d6b656;" parent="1" vertex="1">
          <mxGeometry x="1860" y="81" width="220" height="299" as="geometry" />
        </mxCell>
        <mxCell id="GkRp8IhUm-u5ejVtObmv-34" style="edgeStyle=orthogonalEdgeStyle;rounded=0;orthogonalLoop=1;jettySize=auto;html=1;exitX=0.5;exitY=1;exitDx=0;exitDy=0;entryX=0.5;entryY=0;entryDx=0;entryDy=0;" parent="1" source="GkRp8IhUm-u5ejVtObmv-35" target="GkRp8IhUm-u5ejVtObmv-27" edge="1">
          <mxGeometry relative="1" as="geometry">
            <mxPoint x="2310" y="830" as="sourcePoint" />
          </mxGeometry>
        </mxCell>
        <mxCell id="GkRp8IhUm-u5ejVtObmv-35" value="2. Transformaciones" style="rounded=0;whiteSpace=wrap;html=1;verticalAlign=top;fontStyle=1;fillColor=#f8cecc;strokeColor=#b85450;" parent="1" vertex="1">
          <mxGeometry x="2120" y="210" width="380" height="370" as="geometry" />
        </mxCell>
        <mxCell id="GkRp8IhUm-u5ejVtObmv-36" value="T1. Crear DF con la columna trafico." style="rounded=0;whiteSpace=wrap;html=1;" parent="1" vertex="1">
          <mxGeometry x="2142.5" y="240" width="335" height="50" as="geometry" />
        </mxCell>
        <mxCell id="GkRp8IhUm-u5ejVtObmv-37" value="T2. Eliminar los registros duplicados" style="rounded=0;whiteSpace=wrap;html=1;" parent="1" vertex="1">
          <mxGeometry x="2142.5" y="305" width="335" height="50" as="geometry" />
        </mxCell>
        <mxCell id="GkRp8IhUm-u5ejVtObmv-38" value="T3. Crear columna nombreTrafico y homologar los datos de trafico al nombre definido por el negocio." style="rounded=0;whiteSpace=wrap;html=1;" parent="1" vertex="1">
          <mxGeometry x="2142.5" y="370" width="335" height="50" as="geometry" />
        </mxCell>
        <mxCell id="GkRp8IhUm-u5ejVtObmv-39" value="T4.Agregar columna idTrafico_DWH y generar un valor consecutivo pra los registros existentes." style="rounded=0;whiteSpace=wrap;html=1;" parent="1" vertex="1">
          <mxGeometry x="2142.5" y="433" width="335" height="50" as="geometry" />
        </mxCell>
        <mxCell id="GkRp8IhUm-u5ejVtObmv-40" value="T5. cambiar el nombre de la columna trafico por idTrafico_T" style="rounded=0;whiteSpace=wrap;html=1;" parent="1" vertex="1">
          <mxGeometry x="2142.5" y="496" width="335" height="50" as="geometry" />
        </mxCell>
        <mxCell id="GkRp8IhUm-u5ejVtObmv-41" value="T4. Agregar Columna idTipovuelo_DWH que corresponde a un consecutivo de la tabla, y agregar columna idTipoVuelo_T que corresponde a un concat de las columnas tipo_vuelo y tipo_equipo" style="rounded=0;whiteSpace=wrap;html=1;fontSize=11;" parent="1" vertex="1">
          <mxGeometry x="1482.5" y="430" width="335" height="50" as="geometry" />
        </mxCell>
        <mxCell id="GkRp8IhUm-u5ejVtObmv-42" value="T4. Eliminar columna tipo_vuelo y cambiar nombre a columna tipo_equipo por tipoEquipo" style="rounded=0;whiteSpace=wrap;html=1;" parent="1" vertex="1">
          <mxGeometry x="1482.5" y="496" width="335" height="50" as="geometry" />
        </mxCell>
        <mxCell id="GkRp8IhUm-u5ejVtObmv-43" value="" style="endArrow=classic;html=1;rounded=0;exitX=0.5;exitY=1;exitDx=0;exitDy=0;entryX=0.5;entryY=0;entryDx=0;entryDy=0;" parent="1" source="GkRp8IhUm-u5ejVtObmv-21" target="GkRp8IhUm-u5ejVtObmv-15" edge="1">
          <mxGeometry width="50" height="50" relative="1" as="geometry">
            <mxPoint x="1490" y="670" as="sourcePoint" />
            <mxPoint x="1540" y="620" as="targetPoint" />
          </mxGeometry>
        </mxCell>
        <mxCell id="GkRp8IhUm-u5ejVtObmv-44" value="T1. Crear Dataframe con el campo Aeropuertos.fecha_construccion y eliminar las fechas duplicadas" style="rounded=0;whiteSpace=wrap;html=1;" parent="1" vertex="1">
          <mxGeometry x="2802.5" y="250" width="330" height="50" as="geometry" />
        </mxCell>
        <mxCell id="GkRp8IhUm-u5ejVtObmv-45" value="T2. Crear Dataframe con el campo Aeropuertos.fecha_vigencia y eliminar las fechas duplicadas" style="rounded=0;whiteSpace=wrap;html=1;" parent="1" vertex="1">
          <mxGeometry x="2802.5" y="315" width="330" height="50" as="geometry" />
        </mxCell>
        <mxCell id="GkRp8IhUm-u5ejVtObmv-46" value="T6. Generar columnas mes, anio, dia basados en las fechas resultantes." style="rounded=0;whiteSpace=wrap;html=1;" parent="1" vertex="1">
          <mxGeometry x="2800" y="580" width="330" height="50" as="geometry" />
        </mxCell>
      </root>
    </mxGraphModel>
  </diagram>
  <diagram id="HFcBwwevGP1G3p3NpDOI" name="Página-2">
    <mxGraphModel dx="-70" dy="676" grid="1" gridSize="10" guides="1" tooltips="1" connect="1" arrows="1" fold="1" page="1" pageScale="1" pageWidth="827" pageHeight="1169" math="0" shadow="0">
      <root>
        <mxCell id="0" />
        <mxCell id="1" parent="0" />
        <mxCell id="iU0TdhMlgEEw6ftC_Le_-1" value="Divipola" style="rounded=0;whiteSpace=wrap;html=1;fontSize=16;fontStyle=1;fillColor=#dae8fc;strokeColor=#6c8ebf;" vertex="1" parent="1">
          <mxGeometry x="1200" y="20" width="640" height="40" as="geometry" />
        </mxCell>
        <mxCell id="iU0TdhMlgEEw6ftC_Le_-2" value="3. Carga deDatos" style="rounded=0;whiteSpace=wrap;html=1;verticalAlign=top;fontStyle=1;fillColor=#f8cecc;strokeColor=#b85450;" vertex="1" parent="1">
          <mxGeometry x="1460" y="490" width="380" height="230" as="geometry" />
        </mxCell>
        <mxCell id="iU0TdhMlgEEw6ftC_Le_-3" value="&lt;div&gt;&lt;b style=&quot;text-align: left; background-color: initial;&quot;&gt;Destino de Datos:&lt;/b&gt;&lt;br&gt;&lt;ul&gt;&lt;li style=&quot;text-align: left;&quot;&gt;Tabla: G5_Fecha.&lt;/li&gt;&lt;/ul&gt;&lt;div&gt;&lt;br&gt;&lt;/div&gt;&lt;div style=&quot;&quot;&gt;&lt;b&gt;Campos:&lt;/b&gt;&lt;/div&gt;&lt;/div&gt;&lt;div style=&quot;&quot;&gt;&lt;ul&gt;&lt;li style=&quot;text-align: left;&quot;&gt;ID_Fecha.&lt;/li&gt;&lt;li style=&quot;text-align: left;&quot;&gt;Mes.&lt;/li&gt;&lt;li style=&quot;text-align: left;&quot;&gt;Anio.&lt;/li&gt;&lt;/ul&gt;&lt;/div&gt;" style="rounded=1;whiteSpace=wrap;html=1;glass=0;shadow=0;align=center;fillColor=#fff2cc;strokeColor=#d6b656;" vertex="1" parent="1">
          <mxGeometry x="1495" y="530" width="310" height="170" as="geometry" />
        </mxCell>
        <mxCell id="iU0TdhMlgEEw6ftC_Le_-4" style="edgeStyle=orthogonalEdgeStyle;rounded=0;orthogonalLoop=1;jettySize=auto;html=1;exitX=0.5;exitY=1;exitDx=0;exitDy=0;entryX=0.5;entryY=0;entryDx=0;entryDy=0;" edge="1" parent="1" source="iU0TdhMlgEEw6ftC_Le_-5" target="iU0TdhMlgEEw6ftC_Le_-10">
          <mxGeometry relative="1" as="geometry" />
        </mxCell>
        <mxCell id="iU0TdhMlgEEw6ftC_Le_-5" value="1. Extraer Información de Fecha" style="rounded=0;whiteSpace=wrap;html=1;verticalAlign=top;fontStyle=1;fillColor=#f8cecc;strokeColor=#b85450;" vertex="1" parent="1">
          <mxGeometry x="1460" y="80" width="380" height="110" as="geometry" />
        </mxCell>
        <mxCell id="iU0TdhMlgEEw6ftC_Le_-6" style="edgeStyle=orthogonalEdgeStyle;rounded=0;orthogonalLoop=1;jettySize=auto;html=1;exitX=0;exitY=0.5;exitDx=0;exitDy=0;entryX=1;entryY=0.5;entryDx=0;entryDy=0;" edge="1" parent="1" source="iU0TdhMlgEEw6ftC_Le_-7" target="iU0TdhMlgEEw6ftC_Le_-8">
          <mxGeometry relative="1" as="geometry" />
        </mxCell>
        <mxCell id="iU0TdhMlgEEw6ftC_Le_-7" value="Extraer Fecha" style="rounded=1;whiteSpace=wrap;html=1;fillColor=#e1d5e7;strokeColor=#9673a6;" vertex="1" parent="1">
          <mxGeometry x="1560" y="115" width="170" height="60" as="geometry" />
        </mxCell>
        <mxCell id="iU0TdhMlgEEw6ftC_Le_-8" value="&lt;b&gt;Fuente de Datos:&lt;/b&gt;&lt;div&gt;&lt;ul&gt;&lt;li style=&quot;text-align: left;&quot;&gt;Tabla: Vuelos.&lt;/li&gt;&lt;/ul&gt;&lt;div&gt;&lt;br&gt;&lt;/div&gt;&lt;div style=&quot;&quot;&gt;&lt;b&gt;Campos:&lt;/b&gt;&lt;/div&gt;&lt;/div&gt;&lt;div style=&quot;&quot;&gt;&lt;ul&gt;&lt;li style=&quot;text-align: left;&quot;&gt;ano.&lt;/li&gt;&lt;li style=&quot;text-align: left;&quot;&gt;mes&lt;/li&gt;&lt;/ul&gt;&lt;/div&gt;" style="rounded=1;whiteSpace=wrap;html=1;glass=0;shadow=0;align=center;fillColor=#fff2cc;strokeColor=#d6b656;" vertex="1" parent="1">
          <mxGeometry x="1200" y="80" width="240" height="160" as="geometry" />
        </mxCell>
        <mxCell id="iU0TdhMlgEEw6ftC_Le_-9" style="edgeStyle=orthogonalEdgeStyle;rounded=0;orthogonalLoop=1;jettySize=auto;html=1;exitX=0.5;exitY=1;exitDx=0;exitDy=0;entryX=0.5;entryY=0;entryDx=0;entryDy=0;" edge="1" parent="1" source="iU0TdhMlgEEw6ftC_Le_-10" target="iU0TdhMlgEEw6ftC_Le_-2">
          <mxGeometry relative="1" as="geometry">
            <mxPoint x="1650" y="870" as="sourcePoint" />
          </mxGeometry>
        </mxCell>
        <mxCell id="iU0TdhMlgEEw6ftC_Le_-10" value="2. Transformaciones" style="rounded=0;whiteSpace=wrap;html=1;verticalAlign=top;fontStyle=1;fillColor=#f8cecc;strokeColor=#b85450;" vertex="1" parent="1">
          <mxGeometry x="1460" y="220" width="380" height="240" as="geometry" />
        </mxCell>
        <mxCell id="iU0TdhMlgEEw6ftC_Le_-11" value="T3. Agregar columna ID_Fecha." style="rounded=0;whiteSpace=wrap;html=1;" vertex="1" parent="1">
          <mxGeometry x="1485" y="390" width="330" height="50" as="geometry" />
        </mxCell>
        <mxCell id="iU0TdhMlgEEw6ftC_Le_-12" value="T1. Eliminar Duplicados por Mes y Año." style="rounded=0;whiteSpace=wrap;html=1;" vertex="1" parent="1">
          <mxGeometry x="1485" y="250" width="330" height="50" as="geometry" />
        </mxCell>
        <mxCell id="iU0TdhMlgEEw6ftC_Le_-13" value="T2: Transformar datos erróneos al Formato esperado." style="rounded=0;whiteSpace=wrap;html=1;" vertex="1" parent="1">
          <mxGeometry x="1485" y="320" width="330" height="50" as="geometry" />
        </mxCell>
      </root>
    </mxGraphModel>
  </diagram>
</mxfile>
